<svg width="21" height="20" viewBox="0 0 21 20" fill="none" xmlns="http://www.w3.org/2000/svg">
<path d="M10.256 10.1933L8.49803 8.56114C8.45244 8.5152 8.39708 8.47854 8.33546 8.45347C8.27384 8.42839 8.20729 8.41545 8.14001 8.41545C8.07273 8.41545 8.00618 8.42839 7.94455 8.45347C7.88293 8.47854 7.82758 8.5152 7.78198 8.56114L7.0874 9.22599C7.03993 9.26734 7.00209 9.31729 6.97622 9.37275C6.95036 9.42821 6.93701 9.488 6.93701 9.54844C6.93701 9.60888 6.95036 9.66867 6.97622 9.72414C7.00209 9.7796 7.03993 9.82954 7.0874 9.87089L9.57212 12.1347C9.66243 12.222 9.77084 12.2915 9.89082 12.3389C10.0108 12.3863 10.1399 12.4107 10.2703 12.4106C10.4002 12.4109 10.5287 12.3865 10.6482 12.3391C10.7676 12.2916 10.8753 12.2221 10.9648 12.1347L16.0166 7.42424C16.0671 7.38246 16.1075 7.33124 16.1351 7.27395C16.1627 7.21666 16.177 7.15459 16.177 7.09182C16.177 7.02904 16.1627 6.96697 16.1351 6.90968C16.1075 6.8524 16.0671 6.80118 16.0166 6.75939L15.3221 6.11449C15.2772 6.07032 15.2231 6.03512 15.1631 6.01107C15.103 5.98702 15.0384 5.97461 14.973 5.97461C14.9076 5.97461 14.8429 5.98702 14.7829 6.01107C14.7228 6.03512 14.6687 6.07032 14.6239 6.11449L10.256 10.1933Z" fill="black"/>
<path d="M18.0966 11.3734C18.2876 10.4287 18.2876 9.45926 18.0966 8.51455L19.7436 7.21809C20.0119 7.00713 20.1939 6.71691 20.2591 6.39612C20.3243 6.07533 20.2687 5.74348 20.1016 5.45624L19.3855 4.29275C19.2527 4.08645 19.0635 3.91635 18.8372 3.79962C18.6109 3.68289 18.3555 3.62365 18.0966 3.6279C17.9236 3.62545 17.7522 3.65955 17.5954 3.72763L15.5188 4.42572C14.7431 3.79523 13.8435 3.30985 12.8694 2.99629L12.5114 1.03498C12.4414 0.727848 12.2544 0.454487 11.9847 0.265156C11.715 0.075826 11.3808 -0.0167456 11.0435 0.00446187H9.61136C9.27293 -0.0218388 8.93595 0.0687893 8.66506 0.258966C8.39416 0.449142 8.20842 0.725478 8.14344 1.03498L7.78541 2.96305C6.7957 3.26656 5.88232 3.75278 5.1002 4.39248L2.98783 3.69438C2.82486 3.64532 2.65691 3.6119 2.48659 3.59466C2.22835 3.59339 1.97411 3.65389 1.74836 3.77034C1.52261 3.88678 1.33296 4.05525 1.19769 4.25951L0.481637 5.423C0.306192 5.70829 0.245868 6.04226 0.311471 6.3651C0.377074 6.68793 0.564317 6.97853 0.839665 7.18485L2.48659 8.48131C2.38575 8.95191 2.33775 9.43095 2.34338 9.91074C2.33608 10.3906 2.38409 10.8698 2.48659 11.3402L0.839665 12.6533C0.571352 12.8642 0.389335 13.1544 0.324147 13.4752C0.258959 13.796 0.314565 14.1279 0.481637 14.4151L1.19769 15.5786C1.33056 15.7849 1.51969 15.955 1.74599 16.0717C1.97229 16.1885 2.22775 16.2477 2.48659 16.2434C2.65965 16.2459 2.83105 16.2118 2.98783 16.1437L5.0644 15.4456C5.84011 16.0761 6.73974 16.5615 7.71381 16.8751L8.07184 18.8696C8.13148 19.1894 8.31211 19.479 8.5812 19.6862C8.8503 19.8934 9.1902 20.0046 9.53975 19.9999H10.9719C11.3251 19.9979 11.6662 19.8801 11.9348 19.6672C12.2035 19.4542 12.3823 19.16 12.4398 18.8364L12.7978 16.8418C13.8326 16.5169 14.7835 15.9962 15.5904 15.3127L17.5238 16.0107C17.699 16.0598 17.8788 16.0932 18.0608 16.1105C18.3191 16.1117 18.5733 16.0512 18.7991 15.9348C19.0248 15.8183 19.2145 15.6499 19.3497 15.4456L20.03 14.3486C20.2213 14.0904 20.2983 13.7738 20.2449 13.4643C20.1916 13.1549 20.0121 12.8764 19.7436 12.6865L18.0966 11.3734ZM16.8829 8.26856L15.2539 9.78442V10.0437C15.258 11.0617 14.8986 12.0522 14.232 12.8604C13.5653 13.6686 12.629 14.2488 11.5695 14.5104C10.5099 14.772 9.38687 14.7002 8.37595 14.3062C7.36503 13.9121 6.52325 13.2182 5.98225 12.3328C5.44126 11.4474 5.23156 10.4204 5.38594 9.4126C5.54032 8.40478 6.05009 7.47287 6.83551 6.76262C7.62093 6.05238 8.63773 5.60384 9.72688 5.48717C10.816 5.37049 11.9161 5.59225 12.8551 6.11777L13.7323 5.30665C13.8935 5.15498 14.0855 5.03455 14.2972 4.95236C14.509 4.87016 14.7362 4.82784 14.9657 4.82784C15.1952 4.82784 15.4224 4.87016 15.6341 4.95236C15.8458 5.03455 16.0379 5.15498 16.1991 5.30665L16.9151 5.9715C17.0881 6.13205 17.223 6.32441 17.3112 6.53623C17.3993 6.74805 17.4388 6.97465 17.4271 7.20147C17.4045 7.60992 17.2089 7.99351 16.8829 8.26856Z" fill="black"/>
</svg>
