<svg width="41" height="36" viewBox="0 0 41 36" fill="none" xmlns="http://www.w3.org/2000/svg">
<path d="M3.3941 20.4998H32.7928L23.7947 31.3998C23.5864 31.6526 23.4295 31.9443 23.3329 32.2582C23.2364 32.5722 23.2021 32.9022 23.232 33.2296C23.2924 33.8906 23.6108 34.5004 24.117 34.9248C24.6232 35.3491 25.2758 35.5533 25.9313 35.4923C26.5867 35.4314 27.1914 35.1103 27.6121 34.5998L40.0062 19.5998C40.0896 19.4804 40.1641 19.3551 40.2293 19.2248C40.2293 19.0998 40.3532 19.0248 40.4028 18.8998C40.5151 18.6131 40.574 18.308 40.5763 17.9998C40.574 17.6915 40.5151 17.3864 40.4028 17.0998C40.4028 16.9748 40.2788 16.8998 40.2293 16.7748C40.1641 16.6444 40.0896 16.5191 40.0062 16.3998L27.6121 1.39976C27.379 1.11755 27.0872 0.890604 26.7573 0.735051C26.4274 0.579498 26.0676 0.499164 25.7034 0.499761C25.1242 0.498619 24.5629 0.702058 24.117 1.07476C23.866 1.28463 23.6585 1.54238 23.5064 1.83325C23.3543 2.12412 23.2606 2.44239 23.2307 2.76983C23.2008 3.09727 23.2352 3.42746 23.332 3.74146C23.4288 4.05547 23.586 4.34714 23.7947 4.59976L32.7928 15.4998H3.3941C2.73667 15.4998 2.10618 15.7632 1.64131 16.232C1.17644 16.7008 0.915283 17.3367 0.915283 17.9998C0.915283 18.6628 1.17644 19.2987 1.64131 19.7675C2.10618 20.2364 2.73667 20.4998 3.3941 20.4998Z" fill="#BFC4D7"/>
</svg>
