<svg width="30" height="30" viewBox="0 0 30 30" fill="none" xmlns="http://www.w3.org/2000/svg">
<path d="M9.75615 15.7818H22.6268C23.1218 15.7818 23.5235 15.3801 23.5235 14.8851C23.5235 14.3902 23.1218 13.9885 22.6268 13.9885H9.64452L13.2513 10.4669C13.6015 10.1167 13.6015 9.59171 13.2513 9.24157C12.9012 8.89142 12.3332 8.91249 11.9835 9.26264L6.90164 14.3557C6.73351 14.5238 6.63892 14.7574 6.63892 14.995C6.63892 15.2326 6.73351 15.4635 6.90164 15.6316L11.9839 20.7143C12.1592 20.8896 12.3883 20.9775 12.6178 20.9775C12.8474 20.9775 13.0769 20.8905 13.2522 20.7152C13.6024 20.3651 13.6024 19.7123 13.2522 19.3622L9.75615 15.7818Z" fill="#E7E6E6"/>
<path d="M30 14.9998C30 6.72899 23.271 0 15.0002 0C6.72898 0 0 6.72899 0 14.9998C0 23.271 6.72898 30 15.0002 30C23.2715 30 30 23.271 30 14.9998ZM1.79332 14.9998C1.79332 7.718 7.718 1.79332 15.0002 1.79332C22.2824 1.79332 28.2067 7.718 28.2067 14.9998C28.2067 22.282 22.2824 28.2067 15.0002 28.2067C7.718 28.2067 1.79332 22.282 1.79332 14.9998Z" fill="#E7E6E6"/>
</svg>
