<svg width="20" height="20" viewBox="0 0 46 46" fill="none" xmlns="http://www.w3.org/2000/svg">
<path d="M13 23H23M23 23H33M23 23V33M23 23V13M3 35.0005V11.0005C3 8.20023 3 6.79905 3.54497 5.7295C4.02432 4.78868 4.78868 4.02432 5.7295 3.54497C6.79905 3 8.20023 3 11.0005 3H35.0005C37.8007 3 39.2002 3 40.2697 3.54497C41.2105 4.02432 41.9762 4.78868 42.4555 5.7295C43.0005 6.79905 43.0005 8.19917 43.0005 10.9994V34.9995C43.0005 37.7998 43.0005 39.2 42.4555 40.2695C41.9762 41.2103 41.2105 41.9762 40.2697 42.4555C39.2012 43 37.8038 43 35.009 43H10.9923C8.19747 43 6.798 43 5.7295 42.4555C4.78868 41.9762 4.02432 41.2105 3.54497 40.2697C3 39.2002 3 37.8007 3 35.0005Z" stroke="#505050" stroke-width="5" stroke-linecap="round" stroke-linejoin="round"/>
</svg>
