<svg width="151" height="35" viewBox="0 0 151 35" fill="none" xmlns="http://www.w3.org/2000/svg">
<path d="M62.5995 7.41733C63.4508 5.89642 65.0628 5 66.8058 5H145.999C148.761 5 150.999 7.23858 150.999 10V29.0504C150.999 31.9813 148.49 34.2868 145.577 33.96C113.35 30.3435 81.0452 19.8985 63.9995 27C49.1934 33.1685 58.7422 14.3085 62.5995 7.41733Z" fill="#8B51B1"/>
<path d="M2.82955 5.54545L8.01136 20.2386H8.21591L13.3977 5.54545H15.6136L9.20455 23H7.02273L0.613636 5.54545H2.82955ZM18.0597 23V9.90909H20.071V23H18.0597ZM19.0824 7.72727C18.6903 7.72727 18.3523 7.59375 18.0682 7.3267C17.7898 7.05966 17.6506 6.73864 17.6506 6.36364C17.6506 5.98864 17.7898 5.66761 18.0682 5.40057C18.3523 5.13352 18.6903 5 19.0824 5C19.4744 5 19.8097 5.13352 20.0881 5.40057C20.3722 5.66761 20.5142 5.98864 20.5142 6.36364C20.5142 6.73864 20.3722 7.05966 20.0881 7.3267C19.8097 7.59375 19.4744 7.72727 19.0824 7.72727ZM33.0277 12.8409L31.2209 13.3523C31.1072 13.0511 30.9396 12.7585 30.718 12.4744C30.5021 12.1847 30.2067 11.946 29.8317 11.7585C29.4567 11.571 28.9766 11.4773 28.3913 11.4773C27.5902 11.4773 26.9226 11.6619 26.3885 12.0312C25.8601 12.3949 25.5959 12.858 25.5959 13.4205C25.5959 13.9205 25.7777 14.3153 26.1413 14.6051C26.505 14.8949 27.0732 15.1364 27.8459 15.3295L29.7891 15.8068C30.9595 16.0909 31.8317 16.5256 32.4055 17.1108C32.9794 17.6903 33.2663 18.4375 33.2663 19.3523C33.2663 20.1023 33.0504 20.7727 32.6186 21.3636C32.1925 21.9545 31.5959 22.4205 30.8288 22.7614C30.0618 23.1023 29.1697 23.2727 28.1527 23.2727C26.8175 23.2727 25.7124 22.983 24.8374 22.4034C23.9624 21.8239 23.4084 20.9773 23.1754 19.8636L25.0845 19.3864C25.2663 20.0909 25.6101 20.6193 26.1158 20.9716C26.6271 21.3239 27.2947 21.5 28.1186 21.5C29.0561 21.5 29.8004 21.3011 30.3516 20.9034C30.9084 20.5 31.1868 20.017 31.1868 19.4545C31.1868 19 31.0277 18.6193 30.7095 18.3125C30.3913 18 29.9027 17.767 29.2436 17.6136L27.0618 17.1023C25.8629 16.8182 24.9822 16.3778 24.4197 15.7812C23.8629 15.179 23.5845 14.4261 23.5845 13.5227C23.5845 12.7841 23.7919 12.1307 24.2067 11.5625C24.6271 10.9943 25.1982 10.5483 25.9197 10.2244C26.647 9.90057 27.4709 9.73864 28.3913 9.73864C29.6868 9.73864 30.7038 10.0227 31.4425 10.5909C32.1868 11.1591 32.7152 11.9091 33.0277 12.8409ZM44.544 17.6477V9.90909H46.5554V23H44.544V20.7841H44.4077C44.1009 21.4489 43.6236 22.0142 42.9759 22.4801C42.3281 22.9403 41.5099 23.1705 40.5213 23.1705C39.7031 23.1705 38.9759 22.9915 38.3395 22.6335C37.7031 22.2699 37.2031 21.7244 36.8395 20.9972C36.4759 20.2642 36.294 19.3409 36.294 18.2273V9.90909H38.3054V18.0909C38.3054 19.0455 38.5724 19.8068 39.1065 20.375C39.6463 20.9432 40.3338 21.2273 41.169 21.2273C41.669 21.2273 42.1776 21.0994 42.6946 20.8438C43.2173 20.5881 43.6548 20.196 44.0071 19.6676C44.3651 19.1392 44.544 18.4659 44.544 17.6477ZM54.0916 23.3068C53.2621 23.3068 52.5092 23.1506 51.8331 22.8381C51.157 22.5199 50.62 22.0625 50.2223 21.4659C49.8246 20.8636 49.6257 20.1364 49.6257 19.2841C49.6257 18.5341 49.7734 17.9261 50.0689 17.4602C50.3643 16.9886 50.7592 16.6193 51.2536 16.3523C51.7479 16.0852 52.2933 15.8864 52.8899 15.7557C53.4922 15.6193 54.0973 15.5114 54.7053 15.4318C55.5007 15.3295 56.1456 15.2528 56.6399 15.2017C57.1399 15.1449 57.5036 15.0511 57.7308 14.9205C57.9638 14.7898 58.0803 14.5625 58.0803 14.2386V14.1705C58.0803 13.3295 57.8501 12.6761 57.3899 12.2102C56.9354 11.7443 56.245 11.5114 55.3189 11.5114C54.3587 11.5114 53.6058 11.7216 53.0604 12.142C52.5149 12.5625 52.1314 13.0114 51.9098 13.4886L50.0007 12.8068C50.3416 12.0114 50.7962 11.392 51.3643 10.9489C51.9382 10.5 52.5632 10.1875 53.2393 10.0114C53.9212 9.82955 54.5916 9.73864 55.2507 9.73864C55.6712 9.73864 56.1541 9.78977 56.6996 9.89204C57.2507 9.98864 57.782 10.1903 58.2933 10.4972C58.8104 10.804 59.2393 11.267 59.5803 11.8864C59.9212 12.5057 60.0916 13.3352 60.0916 14.375V23H58.0803V21.2273H57.978C57.8416 21.5114 57.6143 21.8153 57.2962 22.1392C56.978 22.4631 56.5547 22.7386 56.0263 22.9659C55.4979 23.1932 54.853 23.3068 54.0916 23.3068ZM54.3984 21.5C55.1939 21.5 55.8643 21.3438 56.4098 21.0312C56.9609 20.7188 57.3757 20.3153 57.6541 19.821C57.9382 19.3267 58.0803 18.8068 58.0803 18.2614V16.4205C57.995 16.5227 57.8075 16.6165 57.5178 16.7017C57.2337 16.7812 56.9041 16.8523 56.5291 16.9148C56.1598 16.9716 55.799 17.0227 55.4467 17.0682C55.1001 17.108 54.8189 17.142 54.603 17.1705C54.0803 17.2386 53.5916 17.3494 53.1371 17.5028C52.6882 17.6506 52.3246 17.875 52.0462 18.1761C51.7734 18.4716 51.6371 18.875 51.6371 19.3864C51.6371 20.0852 51.8956 20.6136 52.4126 20.9716C52.9354 21.3239 53.5973 21.5 54.3984 21.5ZM65.7741 5.54545V23H63.7628V5.54545H65.7741Z" fill="#00FFF0"/>
<path d="M68.7763 7.42045V5.54545H81.8672V7.42045H76.3786V23H74.2649V7.42045H68.7763ZM86.3224 23L82.3338 9.90909H84.4474L87.277 19.9318H87.4134L90.2088 9.90909H92.3565L95.1179 19.8977H95.2543L98.0838 9.90909H100.197L96.2088 23H94.2315L91.3679 12.9432H91.1634L88.2997 23H86.3224ZM107.9 23.2727C106.638 23.2727 105.55 22.9943 104.636 22.4375C103.727 21.875 103.025 21.0909 102.531 20.0852C102.042 19.0739 101.798 17.8977 101.798 16.5568C101.798 15.2159 102.042 14.0341 102.531 13.0114C103.025 11.983 103.712 11.1818 104.593 10.608C105.479 10.0284 106.513 9.73864 107.695 9.73864C108.377 9.73864 109.05 9.85227 109.715 10.0795C110.38 10.3068 110.985 10.6761 111.531 11.1875C112.076 11.6932 112.511 12.3636 112.835 13.1989C113.158 14.0341 113.32 15.0625 113.32 16.2841V17.1364H103.229V15.3977H111.275C111.275 14.6591 111.127 14 110.832 13.4205C110.542 12.8409 110.127 12.3835 109.587 12.0483C109.053 11.7131 108.423 11.5455 107.695 11.5455C106.894 11.5455 106.201 11.7443 105.616 12.142C105.036 12.5341 104.59 13.0455 104.278 13.6761C103.965 14.3068 103.809 14.983 103.809 15.7045V16.8636C103.809 17.8523 103.979 18.6903 104.32 19.3778C104.667 20.0597 105.147 20.5795 105.761 20.9375C106.374 21.2898 107.087 21.4659 107.9 21.4659C108.428 21.4659 108.906 21.392 109.332 21.2443C109.763 21.0909 110.136 20.8636 110.448 20.5625C110.761 20.2557 111.002 19.875 111.173 19.4205L113.116 19.9659C112.911 20.625 112.567 21.2045 112.085 21.7045C111.602 22.1989 111.005 22.5852 110.295 22.8636C109.585 23.1364 108.786 23.2727 107.9 23.2727ZM120.232 23.3068C119.403 23.3068 118.65 23.1506 117.974 22.8381C117.298 22.5199 116.761 22.0625 116.363 21.4659C115.965 20.8636 115.766 20.1364 115.766 19.2841C115.766 18.5341 115.914 17.9261 116.21 17.4602C116.505 16.9886 116.9 16.6193 117.394 16.3523C117.888 16.0852 118.434 15.8864 119.031 15.7557C119.633 15.6193 120.238 15.5114 120.846 15.4318C121.641 15.3295 122.286 15.2528 122.781 15.2017C123.281 15.1449 123.644 15.0511 123.871 14.9205C124.104 14.7898 124.221 14.5625 124.221 14.2386V14.1705C124.221 13.3295 123.991 12.6761 123.531 12.2102C123.076 11.7443 122.386 11.5114 121.46 11.5114C120.499 11.5114 119.746 11.7216 119.201 12.142C118.656 12.5625 118.272 13.0114 118.05 13.4886L116.141 12.8068C116.482 12.0114 116.937 11.392 117.505 10.9489C118.079 10.5 118.704 10.1875 119.38 10.0114C120.062 9.82955 120.732 9.73864 121.391 9.73864C121.812 9.73864 122.295 9.78977 122.84 9.89204C123.391 9.98864 123.923 10.1903 124.434 10.4972C124.951 10.804 125.38 11.267 125.721 11.8864C126.062 12.5057 126.232 13.3352 126.232 14.375V23H124.221V21.2273H124.119C123.982 21.5114 123.755 21.8153 123.437 22.1392C123.119 22.4631 122.695 22.7386 122.167 22.9659C121.638 23.1932 120.994 23.3068 120.232 23.3068ZM120.539 21.5C121.335 21.5 122.005 21.3438 122.55 21.0312C123.102 20.7188 123.516 20.3153 123.795 19.821C124.079 19.3267 124.221 18.8068 124.221 18.2614V16.4205C124.136 16.5227 123.948 16.6165 123.658 16.7017C123.374 16.7812 123.045 16.8523 122.67 16.9148C122.3 16.9716 121.94 17.0227 121.587 17.0682C121.241 17.108 120.96 17.142 120.744 17.1705C120.221 17.2386 119.732 17.3494 119.278 17.5028C118.829 17.6506 118.465 17.875 118.187 18.1761C117.914 18.4716 117.778 18.875 117.778 19.3864C117.778 20.0852 118.036 20.6136 118.553 20.9716C119.076 21.3239 119.738 21.5 120.539 21.5ZM131.778 18.2273L131.744 15.7386H132.153L137.881 9.90909H140.369L134.267 16.0795H134.097L131.778 18.2273ZM129.903 23V5.54545H131.915V23H129.903ZM138.222 23L133.108 16.5227L134.54 15.125L140.778 23H138.222Z" fill="#EEF4F4"/>
</svg>
